<svg width="72" height="47" viewBox="0 0 72 47" fill="none" xmlns="http://www.w3.org/2000/svg">
<path id="Vector 11" d="M10.3112 19.4235V41.8444C10.3112 44.6918 8.00298 47 5.15561 47C2.30825 47 0 44.6918 0 41.8444V23.5C0 10.5213 10.5213 0 23.5 0H47.9592C60.9379 0 71.4592 10.5213 71.4592 23.5V41.9643C71.4592 44.7454 69.2046 47 66.4235 47C63.6423 47 61.3878 44.7454 61.3878 41.9643V18.5842C61.3878 13.353 57.147 9.11225 51.9158 9.11225C46.6846 9.11225 42.4439 13.353 42.4439 18.5842V41.2449C42.4439 44.4234 39.8672 47 36.6888 47C33.5103 47 30.9337 44.4233 30.9337 41.2449V19.4235C30.9337 13.7287 26.3172 9.11225 20.6224 9.11225C14.9277 9.11225 10.3112 13.7287 10.3112 19.4235Z" fill="#343434"/>
</svg>
